<svg width="369" height="68" viewBox="0 0 369 68" fill="none" xmlns="http://www.w3.org/2000/svg">
<path d="M58.752 65.664C56.896 65.664 54.848 65.408 52.608 64.896C50.432 64.32 48.288 63.168 46.176 61.44C44.128 59.648 42.368 56.896 40.896 53.184L38.592 47.52H12.48L4.70401 65.28H5.90086e-06L27.744 1.92H31.392L52.8 53.184C54.08 56.32 55.488 58.688 57.024 60.288C58.624 61.824 60.608 62.72 62.976 62.976V65.184C62.464 65.312 61.792 65.408 60.96 65.472C60.192 65.6 59.456 65.664 58.752 65.664ZM14.304 43.392H36.672L25.728 17.184L14.304 43.392ZM113.338 66.24C111.162 66.24 109.082 65.792 107.098 64.896C105.178 64 103.258 62.56 101.338 60.576C99.4818 58.528 97.4978 55.776 95.3858 52.32L85.7858 36.192H80.7938V65.28H69.8498V14.016C69.8498 11.136 69.4338 8.832 68.6018 7.104C67.8338 5.312 66.0098 4.416 63.1298 4.416H61.6898V1.92H87.6098C89.2738 1.92 91.1938 2.048 93.3698 2.304C95.6098 2.49599 97.8498 2.94399 100.09 3.648C102.33 4.288 104.41 5.248 106.33 6.52799C108.25 7.808 109.786 9.472 110.938 11.52C112.154 13.568 112.762 16.128 112.762 19.2C112.762 22.72 111.994 25.568 110.458 27.744C108.922 29.92 106.97 31.616 104.602 32.832C102.234 33.984 99.7698 34.88 97.2098 35.52L107.29 52.32C109.722 56.416 111.93 59.168 113.914 60.576C115.962 61.984 117.882 62.816 119.674 63.072V65.28C119.162 65.536 118.298 65.76 117.082 65.952C115.866 66.144 114.618 66.24 113.338 66.24ZM80.7938 32.544H87.0338C88.5058 32.544 90.0418 32.32 91.6418 31.872C93.2418 31.36 94.7458 30.592 96.1538 29.568C97.5618 28.544 98.6818 27.168 99.5138 25.44C100.41 23.712 100.858 21.6 100.858 19.104C100.858 16.608 100.41 14.496 99.5138 12.768C98.6818 11.04 97.5618 9.664 96.1538 8.64C94.8098 7.55199 93.3378 6.78399 91.7378 6.336C90.1378 5.824 88.6018 5.568 87.1298 5.568C86.4258 5.568 85.4978 5.632 84.3458 5.76C83.1938 5.888 82.0098 6.08 80.7938 6.336V32.544ZM153.314 67.2C146.85 67.2 141.282 65.76 136.61 62.88C132.002 60 128.482 56.096 126.05 51.168C123.618 46.176 122.402 40.64 122.402 34.56C122.402 29.696 123.17 25.184 124.706 21.024C126.242 16.8 128.418 13.12 131.234 9.984C134.114 6.848 137.41 4.416 141.122 2.688C144.898 0.895998 148.962 -1.90735e-06 153.314 -1.90735e-06C159.01 -1.90735e-06 163.714 0.767998 167.426 2.304C171.202 3.84 173.986 5.664 175.778 7.776C176.994 9.31199 177.698 11.392 177.89 14.016C178.082 16.64 178.178 19.392 178.178 22.272H175.682C174.466 16.256 172.226 11.744 168.962 8.73599C165.762 5.664 161.506 4.128 156.194 4.128C152.162 4.128 148.482 5.056 145.154 6.91199C141.826 8.76799 139.17 11.904 137.186 16.32C135.202 20.736 134.21 26.816 134.21 34.56C134.21 38.208 134.626 41.728 135.458 45.12C136.29 48.512 137.57 51.584 139.298 54.336C141.09 57.024 143.362 59.168 146.114 60.768C148.866 62.304 152.226 63.072 156.194 63.072C160.738 63.072 164.834 61.92 168.482 59.616C172.13 57.248 175.17 53.856 177.602 49.44L180.386 51.552C177.378 57.184 173.666 61.216 169.25 63.648C164.898 66.016 159.586 67.2 153.314 67.2ZM243.252 65.664C241.396 65.664 239.348 65.408 237.108 64.896C234.932 64.32 232.788 63.168 230.676 61.44C228.628 59.648 226.868 56.896 225.396 53.184L223.092 47.52H196.98L189.204 65.28H184.5L212.244 1.92H215.892L237.3 53.184C238.58 56.32 239.988 58.688 241.524 60.288C243.124 61.824 245.108 62.72 247.476 62.976V65.184C246.964 65.312 246.292 65.408 245.46 65.472C244.692 65.6 243.956 65.664 243.252 65.664ZM198.804 43.392H221.172L210.228 17.184L198.804 43.392ZM254.35 65.28V14.016C254.35 11.136 253.934 8.832 253.102 7.104C252.334 5.312 250.51 4.416 247.63 4.416H246.19V1.92H271.918C284.91 1.92 294.638 4.736 301.102 10.368C307.566 15.936 310.798 23.552 310.798 33.216C310.798 39.488 309.422 45.056 306.67 49.92C303.918 54.72 299.822 58.496 294.382 61.248C289.006 63.936 282.35 65.28 274.414 65.28H254.35ZM274.126 61.632C278.734 61.632 282.83 60.512 286.414 58.272C289.998 55.968 292.814 52.736 294.862 48.576C296.974 44.352 298.03 39.36 298.03 33.6C298.03 27.968 297.006 23.072 294.958 18.912C292.91 14.688 290.062 11.424 286.414 9.12C282.83 6.752 278.67 5.568 273.934 5.568C272.526 5.568 271.182 5.632 269.902 5.76C268.686 5.888 267.15 6.176 265.294 6.624V60.768C266.702 61.024 267.854 61.216 268.75 61.344C269.71 61.472 270.606 61.568 271.438 61.632C272.27 61.632 273.166 61.632 274.126 61.632ZM323.537 65.28V14.016C323.537 11.136 323.121 8.832 322.289 7.104C321.521 5.312 319.697 4.416 316.817 4.416H315.377V1.92H357.137C359.377 1.92 361.073 2.304 362.225 3.072C363.377 3.776 364.177 4.736 364.625 5.952C365.073 7.104 365.297 8.32 365.297 9.59999V17.376H362.801C362.801 13.408 361.745 10.528 359.633 8.73599C357.585 6.94399 354.641 6.04799 350.801 6.04799H334.385V30.432H359.729V34.56H334.385V61.152H350.993C354.833 61.152 358.001 60.384 360.497 58.848C362.993 57.248 365.041 54.432 366.641 50.4L368.945 51.168L365.873 59.328C365.297 61.184 364.433 62.656 363.281 63.744C362.129 64.768 360.369 65.28 358.001 65.28H323.537Z" fill="#205CA8"/>
</svg>
