<svg width="90" height="90" viewBox="0 0 90 90" fill="none" xmlns="http://www.w3.org/2000/svg">
  <defs>
    <linearGradient id="a-gradient" x1="0" y1="45" x2="90" y2="45" gradientUnits="userSpaceOnUse">
      <stop offset="0%" stop-color="#2962D6"/>
      <stop offset="45%" stop-color="#2C83F5"/>
      <stop offset="100%" stop-color="#27C5D8"/>
    </linearGradient>
  </defs>
  <g transform="translate(8.878, -4.296)">
    <!-- Path 1 (bowl) -->
    <path d="M24.576 75.36C19.904 75.36 15.712 74.208 12 71.904C8.288 69.536 5.344 66.368 3.168 62.4C1.056 58.368 4.41074e-06 53.824 4.41074e-06 48.768C4.41074e-06 43.712 1.152 39.1679 3.456 35.136C5.824 31.104 8.992 27.936 12.96 25.632C16.992 23.264 21.504 22.08 26.496 22.08C31.488 22.08 35.968 23.264 39.936 25.632C43.904 27.936 47.04 31.104 49.344 35.136C51.712 39.1679 52.896 43.712 52.896 48.768H49.152C49.152 53.824 48.064 58.368 45.888 62.4C43.776 66.368 40.864 69.536 37.152 71.904C33.44 74.208 29.248 75.36 24.576 75.36Z" fill="url(#a-gradient)"/>
    <!-- Path 2 (counter) -->
    <path d="M26.496 66.72C29.76 66.72 32.672 65.952 35.232 64.416C37.792 62.816 39.808 60.672 41.28 57.984C42.752 55.232 43.488 52.16 43.488 48.768C43.488 45.312 42.752 42.24 41.28 39.552C39.808 36.7999 37.792 34.6559 35.232 33.12C32.672 31.5199 29.76 30.7199 26.496 30.7199C23.296 30.7199 20.384 31.5199 17.76 33.12C15.2 34.6559 13.152 36.7999 11.616 39.552C10.144 42.24 9.40801 45.312 9.40801 48.768C9.40801 52.16 10.144 55.232 11.616 57.984C13.152 60.672 15.2 62.816 17.76 64.416C20.384 65.952 23.296 66.72 26.496 66.72Z" fill="url(#a-gradient)"/>
    <!-- Path 3 (stem) -->
    <path d="M48 75.072C46.592 75.072 45.408 74.624 44.448 73.728C43.552 72.768 43.104 71.584 43.104 70.176V55.488L44.928 45.312L52.896 48.768V70.176C52.896 71.584 52.416 72.768 51.456 73.728C50.56 74.624 49.408 75.072 48 75.072Z" fill="url(#a-gradient)"/>
    <!-- Path 4 (period, translated by -274 horizontally) -->
    <path d="M339.619 76.512C337.827 76.512 336.259 75.872 334.915 74.592C333.635 73.248 332.995 71.68 332.995 69.888C332.995 68.032 333.635 66.464 334.915 65.184C336.259 63.84 337.827 63.168 339.619 63.168C341.475 63.168 343.043 63.84 344.323 65.184C345.603 66.464 346.243 68.032 346.243 69.888C346.243 71.68 345.603 73.248 344.323 74.592C343.043 75.872 341.475 76.512 339.619 76.512Z" transform="translate(-274, 0)" fill="url(#a-gradient)"/>
  </g>
</svg>
